,
.   http://www.scenetime.com/signup.php  ---&gt;  Hottest scene tracker on the net !!!  

    Join Now   http://www.scenetime.com/signup.php

    seed back for speed


 



...................................NFO:.................................................[pre]
oooooo     oooo  o8o   .oooooo..o ooooo     ooo       .o.       ooooo         o8o   .oooooo..o oooooooooooo
`888.     .8'   `"'  d8P'    `Y8 `888'     `8'      .888.      `888'         `"'  d8P'    `Y8 `888'     `8
 `888.   .8'   oooo  Y88bo.       888       8      .8"888.      888         oooo  Y88bo.       888        
  `888. .8'    `888   `"Y8888o.   888       8     .8' `888.     888         `888   `"Y8888o.   888oooo8    
   `888.8'      888       `"Y88b  888       8    .88ooo8888.    888          888       `"Y88b  888    "    
    `888'       888  oo     .d8P  `88.    .8'   .8'     `888.   888       o  888  oo     .d8P  888       o
     `8'       o888o 8""88888P'     `YbodP'    o88o     o8888o o888ooooood8 o888o 8""88888P'  o888ooooood8




Title: Clarkson Powered Up 2011 DvDRiP XviD -VISUALiSE
Format: Xvid
Language: English
Subtitles: No
Imdb: 

Plot:
jeremy clarkson powered up 2011

Sources:
Video:         - Many Thanks ;) :P
Audio:         -  Many Thanks ;) :P  

Release Notes:

First off thanks to our good friend :P for letting
us release the rip of this before his RG did them selfs
truly appreciated bro u know that ;) :P 

Done our normal thing on this Straight forward rip
ran some filters and added a few tweaks etc etc :P :P


enjoy. :P

Info:

Video
ID                               : 0
Format                           : MPEG-4 Visual
Format profile                   : Advanced Simple@L5
Format settings, BVOP            : 2
Format settings, QPel            : No
Format settings, GMC             : No warppoints
Format settings, Matrix          : Default (MPEG)
Codec ID                         : XVID
Codec ID/Hint                    : XviD
Duration                         : 1h 6mn
Bit rate                         : 1 796 Kbps
Width                            : 714 pixels
Height                           : 402 pixels
Display aspect ratio             : 16:9
Frame rate                       : 29.970 fps
Color space                      : YUV
Chroma subsampling               : 4:2:0
Bit depth                        : 8 bits
Scan type                        : Progressive
Compression mode                 : Lossy
Bits/(Pixel*Frame)               : 0.209
Stream size                      : 855 MiB (93%)

Audio
ID                               : 1
Format                           : MPEG Audio
Format version                   : Version 1
Format profile                   : Layer 3
Codec ID                         : 55
Codec ID/Hint                    : MP3
Duration                         : 1h 6mn
Bit rate mode                    : Constant
Bit rate                         : 128 Kbps
Channel(s)                       : 2 channels
Sampling rate                    : 48.0 KHz
Compression mode                 : Lossy
Delay relative to video          : 33ms
Stream size                      : 60.9 MiB (7%)
Alignment                        : Aligned on interleaves
Interleave, duration             : 24 ms (0.72 video frame)
Interleave, preload duration     : 504 ms
Writing library                  : LAME3.98.4


Screens:
[IMG]http://i.imgur.com/G5INq.png[/IMG]
[IMG]http://i.imgur.com/O18R0.png[/IMG]
[IMG]http://i.imgur.com/59H0u.png[/IMG]
[IMG]http://i.imgur.com/7XAhF.png[/IMG]

Greetz
The Select Few .... YOU Know Who YOU Are ;)
The Rest Of YOU .....................SUCK :P
[/pre]